PathFileType	4	(X/Y/Z)	22_coords_data.trc
DataRate	CameraRate	NumFrames	NumMarkers	Units	OrigDataRate	OrigDataStartFrame	OrigNumFrames
30.0	30.0	5	21	m	30.0	50	59
Frame#	Time	THUMB_TIP	THUMB_IP	THUMB_MCP	THUMB_CMC	INDEX_TIP	INDEX_DIP	INDEX_PIP	INDEX_MCP	MIDDLE_TIP	MIDDLE_DIP	MIDDLE_PIP	MIDDLE_MCP	RING_TIP	RING_DIP	RING_PIP	RING_MCP	PINKY_TIP	PINKY_DIP	PINKY_PIP	PINKY_MCP	WRIST
X1	Y1	Z1	X2	Y2	Z2	X3	Y3	Z3	X4	Y4	Z4	X5	Y5	Z5	X6	Y6	Z6	X7	Y7	Z7	X8	Y8	Z8	X9	Y9	Z9	X10	Y10	Z10	X11	Y11	Z11	X12	Y12	Z12	X13	Y13	Z13	X14	Y14	Z14	X15	Y15	Z15	X16	Y16	Z16	X17	Y17	Z17	X18	Y18	Z18	X19	Y19	Z19	X20	Y20	Z20	X21	Y21	Z21
48	1.6333333333333262	0.5604117912019705	0.05289604684820881	-0.06732414231043495	0.5433109237687038	0.03756600508797536	-0.06658241954596333	0.5209181184240782	0.015991471067835716	-0.06796869174562362	0.4876826224220597	-0.009814493442983574	-0.05315842499697472	0.568978632972839	0.08344511800530119	-0.021674347179070685	0.5534304977501799	0.08223279704059161	-0.030882265998024024	0.5317690597794161	0.07861089830291468	-0.043116389896888555	0.5023239057153979	0.051337998105496996	-0.05735745414672367	0.5531518913062845	0.09408219416290442	0.0006762805474218349	0.5375449275671886	0.09302501970151045	-0.008450880292879118	0.5126741618721833	0.086916612921353	-0.02236281510987255	0.48926784320628913	0.0528903456003732	-0.039407031129151386	0.5398139633895873	0.08956570853256496	0.014868769610526612	0.5242656135571381	0.0858149686454357	0.0065512719227075605	0.5036242988580933	0.07840776015331175	-0.005249125055750814	0.48220227929382087	0.04859463332064995	-0.022190063053617377	0.5184139945160138	0.08292486949578792	0.030720751050867343	0.5081625209497193	0.07233654716699822	0.02201473474137084	0.49588414989195256	0.05980962897344633	0.010476539746491757	0.4787406981814587	0.03484086138750386	-0.009107794801538241	0.4622830810018609	-0.023011742144276925	-0.051989820119430985
49	1.6666666666666594	0.5603037264946769	0.053027075653320654	-0.06763359271357904	0.5431830377521532	0.03771866901476584	-0.06690235870843712	0.5207289888404267	0.016209481456273767	-0.06831322299794412	0.487622891003506	-0.009728270348614898	-0.053443477965825104	0.5690613178631626	0.0832941523596279	-0.022105131925692006	0.5533790978677013	0.08225717517783604	-0.03110472382412821	0.5315402131120233	0.07877055633341323	-0.04305949001431057	0.5020035328755087	0.05152360516908272	-0.057159995922060156	0.5536096582804443	0.09355480579963527	0.0006137684000041797	0.5378599132642277	0.09261640882310473	-0.008278078598150714	0.5127773603479513	0.08669523589987371	-0.02188744303648504	0.4891056234216739	0.05287501850479359	-0.03897514877021739	0.5405359248982187	0.08885129612765541	0.014941681565628338	0.524851367102215	0.08518174748298157	0.006846679435412662	0.5040184199002585	0.07795381229460507	-0.004725927997362472	0.48233976928476263	0.0483628882065158	-0.02172987321911012	0.5194488395096336	0.08200209098876277	0.031051159003024017	0.5090068864739378	0.07156870761001766	0.02238454905031202	0.49650838473982284	0.059211399486342686	0.010899932846934472	0.47911766584077475	0.03444039921537012	-0.008717505639008753	0.4622830810018609	-0.023011742144276925	-0.051989820119430985
51	1.7000000000000006	0.5602394357165983	0.053128212696887944	-0.06766783732881812	0.5431065130093135	0.03783099289937608	-0.06699106116728662	0.5206212135612691	0.016358183766535972	-0.06845727284245447	0.48757620341885943	-0.00965568317074339	-0.05358461229843729	0.5690221771393034	0.0832320295186616	-0.02229002296519189	0.5532671918811674	0.08230910264302327	-0.03117420247137825	0.5313292524486973	0.07890225035118814	-0.04296954069963163	0.5017626112626458	0.05166115955678452	-0.057018483553324936	0.5538885719052868	0.09311452169394674	0.0006415311249009167	0.5380536991419558	0.0922772683059716	-0.008108086657233417	0.5128390984311293	0.08651210761009076	-0.021539258726128174	0.4889498824236549	0.052882162696206714	-0.03869968076748114	0.5409689969035567	0.08825267985097807	0.015028643430575157	0.525190181460007	0.0846820640454975	0.007073790448398228	0.5042198432194598	0.07763849820379298	-0.004363563848405718	0.48233855639227124	0.0482411992500692	-0.02144363805818904	0.5200496294889927	0.0814096272280066	0.03124921588391018	0.5094585881258473	0.07109861189253242	0.02261713585672322	0.49682085370380663	0.05884975203801157	0.011168768290023053	0.4792742656145106	0.034226590616804886	-0.008495936616224112	0.4622830810018609	-0.023011742144276925	-0.051989820119430985
52	1.733333333333334	0.560215059975447	0.05318194327278358	-0.06762918151334536	0.5430665609289138	0.03789974287093045	-0.06701004394490688	0.5205565935915745	0.016457037245204198	-0.06853704948529084	0.48753838470737776	-0.009594917357782506	-0.053671534242169305	0.5689875733004434	0.08318563493302733	-0.02241085890901198	0.5531817510092683	0.08234460548563893	-0.03121248666576345	0.5311736543572046	0.0789923542677391	-0.04289220954456148	0.5015845631369032	0.05176193947377128	-0.056914559023345176	0.5541414798278803	0.09272342763569674	0.0006715084906478534	0.5382460143374108	0.0919662616175616	-0.0079749287214224	0.5129323812513876	0.08633347228249666	-0.021275350304702203	0.48883180516435826	0.05288867638693184	-0.038501951268830964	0.541322513693481	0.08773445952959957	0.015085243221306627	0.5254706124308604	0.08425483069741879	0.007236077052191214	0.5043904112065158	0.0773782235339685	-0.004100473095924064	0.482318456704285	0.048160930687551895	-0.021243969156476823	0.5204970639513553	0.08097671864026024	0.03136092639379487	0.5097854786038832	0.07076176161126402	0.02276345047120101	0.4970393349486314	0.05859391184733642	0.011348930199101454	0.4793682106580245	0.03408608499851273	-0.008348309212907443	0.46228308100186094	-0.023011742144276925	-0.051989820119430985
53	1.7666666666666675	0.5602116562210873	0.05321063097704348	-0.06753410183459989	0.543047986421509	0.03794327646055817	-0.06697167399123026	0.5205233916252324	0.01652047557133396	-0.068561086248704	0.48750831013156004	-0.0095432136378939	-0.0537092008878835	0.5689498056612073	0.08315649562863214	-0.02247480991855831	0.5531121490605967	0.08236934651161387	-0.031224040151482363	0.5310597062047419	0.07905203152718154	-0.04282985845022022	0.5014573483285008	0.05183311215371089	-0.05684652461259472	0.5543561648384748	0.09239210774410245	0.0007023236934492437	0.5384220298846881	0.09169548134356809	-0.007877772747301965	0.5130397594884354	0.08616958705998645	-0.021091946648768258	0.4887420598553842	0.05289753769027927	-0.038376056237688146	0.5415887203421129	0.08730829461025291	0.015116120171511791	0.5256831723542656	0.08391059889281205	0.007339925278251228	0.5045200006720038	0.0771774397808147	-0.003927936618294967	0.4822772337899276	0.04811939091004502	-0.02112124785416773	0.5207976759460046	0.08069392489133298	0.031400663665149306	0.5099945752110953	0.07054814751768745	0.022835839323937058	0.49716851232332593	0.05843641806474975	0.011451194425749437	0.4794035946753001	0.034010162125205246	-0.008262992667172443	0.4622830810018609	-0.023011742144276925	-0.051989820119430985
